<svg xmlns="http://www.w3.org/2000/svg" data-name="Layer 1" viewBox="0 0 512 512" id="namaste"><path d="M251.13 223.83v202.7l-6.7-7.39-7.64 8.42V226.17l5.71-14.04a5.286 5.286 0 0 0 3.86-.03Z"></path><path d="M218.845 225.12a5 5 0 0 0-.482-9.99 59.895 59.895 0 0 1-28.458-5.605 58.733 58.733 0 0 1-16.015-11.212 5 5 0 0 0-7.01 7.133 68.728 68.728 0 0 0 18.738 13.114 69.706 69.706 0 0 0 29.81 6.641q1.707 0 3.417-.082ZM244.431 171a7.5 7.5 0 1 0 7.5 7.5 7.5 7.5 0 0 0-7.5-7.5Zm-42.025 70.147a29.101 29.101 0 0 1-10.031-.536 31.392 31.392 0 0 1-17.159-11.27 5 5 0 0 0-7.866 6.175 41.436 41.436 0 0 0 22.752 14.834 38.588 38.588 0 0 0 8.781 1.006 39.844 39.844 0 0 0 4.7-.279 5 5 0 1 0-1.177-9.93Zm126.612-68.67a7.5 7.5 0 0 0 1.912-10.433c-10.917-15.815-23.536-25.464-37.506-28.679a56.672 56.672 0 0 0-14.831-1.187c-4.202.088-7.24.152-10.744-1.4-7.389-3.274-12.907-11.858-16.418-25.495V41a7.5 7.5 0 1 0-15 0v64.49c-3.513 13.515-9.012 22.03-16.363 25.287-3.504 1.553-6.54 1.487-10.744 1.4a56.64 56.64 0 0 0-14.831 1.19c-13.97 3.213-26.588 12.861-37.506 28.677a7.5 7.5 0 1 0 12.345 8.521c8.723-12.635 18.32-20.233 28.523-22.58a42.179 42.179 0 0 1 11.153-.81c4.96.1 10.58.222 17.138-2.684 7.254-3.215 13.203-8.985 17.813-17.2 4.609 8.215 10.558 13.985 17.812 17.201 6.558 2.905 12.18 2.79 17.138 2.683a42.054 42.054 0 0 1 11.152.808c10.205 2.349 19.802 9.947 28.524 22.582a7.497 7.497 0 0 0 10.433 1.911Zm86.256 272.744-.96-3.264a90.567 90.567 0 0 0-81.958-64.706l-40.545-2.144 5.566-37.237a54.45 54.45 0 0 0 .355-2.97 104.279 104.279 0 0 0 8.082-7.495c4.281 8.14 11.313 13.265 19.327 13.265 13.296 0 23.71-14.073 23.71-32.04 0-13.353-5.755-24.55-14.167-29.423a160.614 160.614 0 0 0 8.476-51.827 7.5 7.5 0 0 0-15 0c0 34.568-12.022 67.146-32.012 88.42a54.522 54.522 0 0 0-2.191-6.566l-42.58-104.69c-.019-.046-.042-.09-.062-.136a7.783 7.783 0 0 0-.292-.603q-.082-.152-.17-.299-.083-.137-.171-.27a6.988 6.988 0 0 0-.382-.527 8.254 8.254 0 0 0-.624-.692 8.002 8.002 0 0 0-.244-.23 7.898 7.898 0 0 0-1-.755 7.59 7.59 0 0 0-1.142-.59q-.15-.062-.303-.117a7.288 7.288 0 0 0-.967-.28c-.05-.01-.1-.026-.15-.035-.039-.008-.077-.01-.116-.017a7.173 7.173 0 0 0-.383-.058 6.332 6.332 0 0 0-.635-.053c-.1-.004-.2-.008-.3-.008-.11 0-.22.004-.33.009-.112.005-.222.01-.332.02a7.732 7.732 0 0 0-.655.087c-.043.008-.086.011-.128.02-.056.01-.11.028-.166.04a7.782 7.782 0 0 0-.648.172q-.145.046-.288.097-.17.062-.334.13-.125.052-.247.108-.173.079-.34.166a9.082 9.082 0 0 0-.552.317 7.746 7.746 0 0 0-1.445 1.194c-.074.08-.147.16-.219.244q-.1.116-.196.237a7.832 7.832 0 0 0-.198.262q-.094.13-.182.263a7.336 7.336 0 0 0-.166.263q-.09.15-.174.304a7.56 7.56 0 0 0-.29.602c-.02.046-.044.089-.063.136l-42.58 104.69a54.554 54.554 0 0 0-2.393 7.352c-20.45-21.237-32.75-54.109-32.75-89.207a7.5 7.5 0 0 0-15 0 159.705 159.705 0 0 0 8.675 52.187c-8.54 4.799-14.402 16.086-14.402 29.564 0 17.967 10.415 32.04 23.71 32.04 8.133 0 15.252-5.28 19.514-13.63a102.76 102.76 0 0 0 8.953 8.194c.078.713.166 1.425.272 2.135l4.82 32.196-34.005-1.796a53.261 53.261 0 0 1-37.151-17.823c-13.77-15.431-13.821-33.708-13.51-38.941.012-.197.016-.396.012-.593a1237.923 1237.923 0 0 1 6.204-149.313c.453-4.454.866-9.055 1.265-13.504 2.024-22.553 4.116-45.872 12.537-65.726C148.754 42.074 189.655 15 233.43 15h14.74a125.903 125.903 0 0 1 125.76 125.76V342.5a7.5 7.5 0 0 0 15 0V140.76C388.93 63.144 325.786 0 248.17 0h-14.74c-49.714 0-96.164 30.747-115.584 76.512-9.343 22.023-11.542 46.537-13.669 70.244-.413 4.607-.804 8.96-1.248 13.322a1252.993 1252.993 0 0 0-6.283 150.842c-.477 8.788.367 30.528 17.31 49.516a68.159 68.159 0 0 0 47.548 22.813l37.064 1.957.405 2.704a5.827 5.827 0 0 1-1.788 5.124l-21.245 19.883-3.015-2.812a22.5 22.5 0 0 0-30.69 32.912l.777.726-21.467 20.09a7.5 7.5 0 1 0 10.25 10.952l22.212-20.789 26.378 24.597-18.921 20.869a7.5 7.5 0 0 0 11.112 10.076l18.85-20.79a22.314 22.314 0 0 0 13.674 4.645c.267 0 .536-.003.804-.013a22.482 22.482 0 0 0 15.637-37.832l22.89-25.243 20.014 22.074-.72.67a22.527 22.527 0 0 0-1.11 31.802 22.529 22.529 0 0 0 31.802 1.11l.266-.247 21.6 23.824a7.5 7.5 0 1 0 11.113-10.076l-21.741-23.98 26.129-24.366 25.291 23.67a7.5 7.5 0 1 0 10.25-10.952l-24.586-23.01a22.487 22.487 0 0 0-31.473-32.105l-1.416 1.32-18.18-17.01a5.788 5.788 0 0 1-1.703-3l41.598 2.2a75.544 75.544 0 0 1 68.36 53.97l.96 3.26a7.5 7.5 0 0 0 14.39-4.238ZM328.87 293.59c2.624 2.704 4.982 8.01 4.982 15.04 0 10.402-5.16 17.04-8.71 17.04-3.057 0-6.846-4.661-8.189-11.628a130.671 130.671 0 0 0 11.917-20.452Zm-166.126 32.58c-3.552 0-8.71-6.637-8.71-17.04 0-7.24 2.5-12.644 5.226-15.268a131.275 131.275 0 0 0 11.76 20.187c-1.255 7.239-5.15 12.122-8.276 12.122Zm47.861 149.838a7.501 7.501 0 0 1-10.602.37l-4.024-3.753c-.011-.01-.02-.022-.031-.031l-.02-.016-43.464-40.531a7.5 7.5 0 0 1 4.854-12.982c.09-.003.18-.004.268-.004a7.447 7.447 0 0 1 5.11 2.015l47.538 44.33a7.51 7.51 0 0 1 .371 10.602Zm26.325-59.763-26.308 29.013-23.686-22.088 20.494-19.18a20.82 20.82 0 0 0 6.378-18.3l-1.305-8.72a7.537 7.537 0 0 0-.016-.103l-6.17-41.218a39.59 39.59 0 0 1 2.48-20.763l28.133-69.17Zm84.566 3.444a7.5 7.5 0 1 1 10.23 10.97L290.1 469.476l-.008.007-.013.014-5.892 5.494a7.5 7.5 0 1 1-10.231-10.97Zm-22.642.603-23.437 21.855-23.487-25.901v-170.53l28.133 69.169a39.6 39.6 0 0 1 2.48 20.766l-6.769 45.278c-.009.053-.016.107-.024.16l-.687 4.6a20.814 20.814 0 0 0 6.363 18.297Zm20.866-193.616a5.001 5.001 0 0 0-7.02.846 31.375 31.375 0 0 1-17.158 11.27 28.975 28.975 0 0 1-10.032.536 5 5 0 1 0-1.176 9.93 39.898 39.898 0 0 0 4.702.279 38.548 38.548 0 0 0 8.78-1.007 41.426 41.426 0 0 0 22.75-14.834 5 5 0 0 0-.846-7.02Zm1.378-28.3a4.998 4.998 0 0 0-7.07-.063 58.721 58.721 0 0 1-16.016 11.212 59.895 59.895 0 0 1-28.458 5.606 5 5 0 0 0-.482 9.988q1.71.082 3.416.082a69.702 69.702 0 0 0 29.81-6.64 68.715 68.715 0 0 0 18.738-13.115 5 5 0 0 0 .062-7.07Z"></path></svg>